<?xml version="1.0" standalone="no"?>
<!DOCTYPE svg PUBLIC "-//W3C//DTD SVG 20010904//EN"
 "http://www.w3.org/TR/2001/REC-SVG-20010904/DTD/svg10.dtd">
<svg version="1.0" xmlns="http://www.w3.org/2000/svg"
 width="1024.000000pt" height="1024.000000pt" viewBox="0 0 1024.000000 1024.000000"
 preserveAspectRatio="xMidYMid meet">
<metadata>
Created by potrace 1.11, written by Peter Selinger 2001-2013
</metadata>
<g transform="translate(0.000000,1024.000000) scale(0.100000,-0.100000)"
fill="#000000" stroke="none">
<path d="M450 5341 l0 -1721 365 0 365 0 0 425 0 425 269 0 c169 0 272 4 276
10 4 7 -88 10 -269 10 -239 0 -276 2 -276 15 0 13 38 15 281 15 154 0 313 5
352 10 80 12 191 36 222 49 11 4 44 18 74 29 158 62 337 208 440 357 93 134
162 304 196 481 72 377 18 794 -140 1075 -149 263 -375 431 -685 506 l-105 26
-682 4 -683 5 0 -1721z m1300 926 c145 -50 236 -154 271 -312 30 -137 11 -354
-40 -452 -21 -42 -91 -127 -98 -120 -2 3 10 26 26 52 40 63 58 121 71 227 10
86 2 224 -19 293 -31 106 -107 204 -192 247 -101 50 -151 57 -416 58 -152 0
-173 2 -173 16 0 14 27 15 263 11 201 -3 272 -8 307 -20z m-90 -50 c70 -24
102 -43 154 -92 175 -168 180 -603 9 -769 -61 -59 -104 -66 -392 -66 l-251 0
0 476 0 477 218 -6 c153 -4 230 -10 262 -20z"/>
<path d="M2900 7055 c0 -3 23 -99 51 -213 27 -114 68 -281 90 -372 22 -91 67
-273 99 -405 32 -132 75 -305 94 -385 19 -80 55 -229 80 -332 26 -104 66 -270
90 -370 25 -101 65 -268 91 -373 47 -194 133 -547 201 -827 l39 -158 391 0
390 0 67 268 c60 244 194 784 333 1352 31 124 59 229 63 233 4 4 23 -57 41
-135 18 -79 43 -188 56 -243 13 -55 33 -138 44 -185 11 -47 31 -132 45 -190
13 -58 36 -152 49 -210 14 -58 37 -154 51 -215 14 -60 58 -247 98 -415 l72
-305 393 -3 c259 -1 392 1 392 8 0 7 -128 10 -373 10 l-373 0 -99 418 c-54
229 -106 451 -116 492 -9 41 -29 125 -43 185 -15 61 -38 157 -51 215 -14 58
-33 141 -44 185 -119 504 -119 501 -107 550 7 24 14 47 18 50 3 3 22 -65 43
-152 77 -330 96 -410 115 -488 10 -44 31 -129 45 -190 14 -60 37 -157 51 -215
13 -58 73 -310 132 -560 l107 -455 391 -3 391 -2 16 62 c9 35 35 140 57 233
23 94 68 278 100 410 32 132 73 299 90 370 46 192 114 469 180 740 57 233 94
385 180 740 53 221 132 543 175 721 19 77 35 146 35 152 0 9 -86 12 -345 12
l-344 0 -11 -42 c-6 -24 -16 -59 -21 -78 -5 -19 -40 -163 -78 -320 -38 -157
-92 -378 -120 -492 -28 -115 -74 -301 -102 -415 -28 -115 -82 -336 -120 -493
-90 -371 -90 -370 -100 -345 -15 38 -9 80 40 280 57 227 99 400 322 1315 33
135 75 308 94 384 40 160 40 156 20 156 -8 0 -19 -17 -25 -42 -6 -24 -16 -59
-21 -78 -5 -19 -34 -138 -65 -265 -30 -126 -79 -329 -109 -450 -57 -232 -134
-547 -215 -880 -27 -110 -52 -217 -55 -237 -4 -21 -10 -38 -14 -38 -5 0 -52
192 -177 730 -14 58 -33 141 -44 185 -11 44 -44 188 -75 320 -31 132 -71 303
-89 380 -19 77 -49 204 -67 283 l-34 142 -334 -2 -335 -3 -68 -270 c-37 -148
-158 -634 -268 -1080 -111 -445 -205 -814 -209 -818 -5 -5 -11 9 -14 29 -6 37
26 174 424 1768 43 176 77 321 74 324 -20 21 -51 -90 -268 -969 -131 -530
-242 -973 -247 -984 -6 -16 -9 -17 -13 -5 -5 12 -229 957 -413 1740 -13 58
-31 130 -38 160 -8 30 -17 67 -20 83 l-6 27 -375 0 c-206 0 -375 -2 -375 -5z"/>
<path d="M8145 7048 c-5 -14 -102 -307 -721 -2178 -217 -657 -399 -1205 -404
-1218 -6 -13 -10 -25 -10 -27 0 -3 168 -5 374 -5 l374 0 15 58 c9 31 29 102
46 157 17 55 50 165 74 245 l44 145 510 3 511 2 26 -82 c32 -105 95 -312 136
-448 17 -58 33 -111 35 -117 3 -10 89 -13 385 -13 252 0 379 3 375 10 -4 6
-136 10 -363 10 l-357 0 -24 83 c-22 73 -61 204 -146 485 l-29 92 -523 0
c-458 0 -523 2 -523 15 0 8 5 15 10 15 6 0 252 0 548 0 l537 1 21 -63 c12 -35
47 -148 79 -253 31 -104 67 -224 80 -265 l23 -75 382 -3 c362 -2 382 -1 375
15 -4 10 -240 720 -526 1578 -285 858 -540 1624 -566 1703 l-48 142 -358 0
c-277 0 -359 -3 -362 -12z m435 -1203 c39 -132 89 -298 111 -370 22 -71 51
-166 64 -210 13 -44 35 -117 49 -163 32 -102 32 -102 1 -102 -30 0 -36 12 -68
120 -23 77 -45 152 -122 405 -13 44 -42 139 -64 210 -72 239 -81 273 -76 287
19 54 26 70 29 67 2 -2 36 -112 76 -244z m-107 7 c15 -50 85 -281 162 -537 45
-147 85 -283 87 -297 2 -10 -50 -14 -266 -16 -148 -1 -273 1 -277 5 -4 5 3 42
16 83 13 41 46 152 74 245 28 94 60 197 70 230 11 33 38 124 62 203 23 78 45
142 48 142 3 0 14 -26 24 -58z"/>
<path d="M360 5291 l0 -1721 366 0 c241 0 363 3 359 10 -4 6 -130 10 -346 10
l-339 0 -2 1707 c-3 1617 -4 1708 -20 1711 -17 3 -18 -84 -18 -1717z"/>
<path d="M2816 7002 c-3 -4 10 -69 28 -143 18 -74 54 -219 79 -324 26 -104 78
-318 116 -475 38 -157 86 -350 105 -430 56 -232 123 -507 187 -770 33 -135 73
-299 89 -365 16 -66 56 -230 89 -365 32 -135 76 -316 97 -402 l39 -158 393 0
c260 0 391 3 387 10 -4 6 -140 10 -374 10 l-369 0 -32 133 c-17 72 -60 249
-95 392 -71 291 -125 511 -184 755 -22 91 -65 269 -96 395 -63 260 -116 475
-174 715 -22 91 -61 251 -86 355 -25 105 -68 282 -96 395 -65 272 -68 280 -84
280 -8 0 -16 -4 -19 -8z"/>
<path d="M8055 6998 c-2 -7 -44 -134 -94 -283 -92 -279 -767 -2320 -935 -2825
-52 -157 -98 -293 -101 -302 -7 -17 15 -18 370 -18 248 0 374 3 370 10 -4 6
-134 10 -357 10 -329 0 -350 1 -343 18 4 9 20 58 36 107 16 50 198 599 404
1220 549 1657 685 2069 685 2072 0 9 -31 1 -35 -9z"/>
<path d="M1878 4513 c7 -3 16 -2 19 1 4 3 -2 6 -13 5 -11 0 -14 -3 -6 -6z"/>
<path d="M1783 4493 c9 -2 25 -2 35 0 9 3 1 5 -18 5 -19 0 -27 -2 -17 -5z"/>
</g>
</svg>
